<?xml version="1.0" encoding="utf-8"?>
<!-- Generator: Adobe Illustrator 22.1.0, SVG Export Plug-In . SVG Version: 6.00 Build 0)  -->
<svg version="1.1" id="Layer_1" xmlns="http://www.w3.org/2000/svg" xmlns:xlink="http://www.w3.org/1999/xlink" x="0px" y="0px"
	 viewBox="0 0 141.7 141.7" style="enable-background:new 0 0 141.7 141.7;" xml:space="preserve">
<style type="text/css">
	.st0{opacity:0.98;}
</style>
<g class="st0">
	<path d="M70.3,29.9l0.4,3.3l-0.9,0.1l-0.3-3.1c-0.1-0.8-0.5-1.2-1.2-1.1c-0.3,0-0.6,0.1-0.8,0.3c-0.2,0.2-0.4,0.4-0.5,0.6
		c0,0,0,0.2,0,0.4l0.3,3.2l-0.9,0.1l-0.4-3.3c0-0.3-0.2-0.6-0.4-0.7c-0.2-0.2-0.5-0.2-0.8-0.2c-0.6,0.1-1,0.3-1.3,0.8l0.4,3.6
		L63.1,34l-0.5-5.1l0.9-0.1l0.1,0.6c0.2-0.2,0.4-0.4,0.7-0.6c0.3-0.2,0.6-0.3,0.9-0.3c0.4,0,0.7,0,1,0.1c0.3,0.1,0.5,0.3,0.6,0.6
		c0.2-0.3,0.4-0.5,0.7-0.7c0.3-0.2,0.6-0.3,1-0.3C69.5,28.1,70.2,28.7,70.3,29.9z"/>
	<path d="M78.9,30.1l-0.1-0.8c0.6-0.2,1.2-0.2,1.8-0.1c0.7,0.2,1.1,0.4,1.3,0.8c0.2,0.4,0.3,0.9,0.1,1.6l-0.7,3l-0.8-0.2l0.2-0.6
		c-0.5,0.4-1.1,0.5-1.8,0.3c-0.5-0.1-0.8-0.3-1-0.7c-0.2-0.3-0.3-0.7-0.2-1.2c0.1-0.5,0.4-0.8,0.8-1c0.4-0.2,0.9-0.2,1.5-0.1
		c0.5,0.1,0.9,0.3,1.2,0.6c0.1-0.6,0.1-1,0-1.3c-0.1-0.3-0.4-0.5-0.8-0.6C79.9,30,79.4,30,78.9,30.1z M79.3,33.6
		c0.5,0.1,1,0,1.4-0.3l0.1-0.6c-0.3-0.3-0.6-0.5-1-0.6c-0.3-0.1-0.6-0.1-0.8,0s-0.4,0.3-0.4,0.5c-0.1,0.2,0,0.5,0.1,0.6
		C78.9,33.4,79.1,33.5,79.3,33.6z"/>
	<path d="M88.7,37.9L88,37.5l2.5-4.5l0.8,0.4L90.9,34c0.5-0.3,1-0.3,1.5,0c0.3,0.2,0.5,0.4,0.6,0.6l-0.7,0.6
		c-0.1-0.2-0.3-0.4-0.5-0.5c-0.4-0.2-0.8-0.2-1.3,0.1L88.7,37.9z"/>
	<path d="M96.5,43.5l-0.6-0.6l5.6-5.6l0.6,0.6L96.5,43.5z M101.7,41.5l0.8,0.8l-3.2,0.2l-0.2,3.7l-0.9-0.9l0.2-3.5L101.7,41.5z"/>
	<path d="M103.4,52.2l-0.4-0.8l4.5-2.4l0.4,0.8l-0.6,0.3c0.3,0.1,0.5,0.2,0.8,0.4c0.3,0.2,0.5,0.5,0.6,0.7c0.7,1.3,0.3,2.2-1,2.9
		l-2.6,1.4l-0.4-0.8l2.5-1.3c0.9-0.5,1.2-1.2,0.7-2c-0.3-0.5-0.7-0.8-1.3-1L103.4,52.2z"/>
	<path d="M108.1,62.6c0.4-0.6,1-0.9,1.8-1.1c0.8-0.1,1.4,0,2,0.4c0.6,0.4,0.9,1,1.1,1.8c0.1,0.8,0,1.5-0.4,2.1
		c-0.4,0.6-1,0.9-1.8,1.1c-0.8,0.1-1.4,0-2-0.4c-0.6-0.4-0.9-1-1.1-1.8C107.6,63.9,107.7,63.2,108.1,62.6z M110,62.5
		c-0.5,0.1-0.9,0.3-1.2,0.7c-0.3,0.4-0.4,0.8-0.3,1.3c0.1,0.5,0.3,0.9,0.7,1.2c0.4,0.3,0.8,0.4,1.4,0.3c0.5-0.1,0.9-0.3,1.2-0.7
		c0.3-0.4,0.4-0.8,0.3-1.3c-0.1-0.5-0.3-0.9-0.7-1.2C111,62.5,110.6,62.4,110,62.5z"/>
	<path d="M108.8,74.7c0.6-0.4,1.3-0.6,2-0.5c0.8,0.1,1.4,0.5,1.8,1c0.4,0.6,0.6,1.3,0.5,2.1c-0.1,0.8-0.5,1.4-1,1.8
		c-0.6,0.4-1.2,0.6-2,0.5s-1.4-0.5-1.8-1c-0.4-0.6-0.6-1.3-0.4-2.1C107.9,75.8,108.3,75.1,108.8,74.7z M110.7,75.2
		c-0.5-0.1-1,0-1.4,0.3c-0.4,0.3-0.6,0.7-0.7,1.2c-0.1,0.5,0,1,0.3,1.3c0.3,0.4,0.7,0.6,1.2,0.7c0.5,0.1,1,0,1.4-0.3
		c0.4-0.3,0.6-0.7,0.7-1.2c0.1-0.5,0-0.9-0.3-1.3C111.6,75.5,111.2,75.3,110.7,75.2z"/>
	<path d="M104.9,86.6l0.4-0.8l4.5,2.3l-0.4,0.8l-0.6-0.3c0.1,0.3,0.1,0.6,0.1,0.9c0,0.3-0.1,0.6-0.2,0.9c-0.6,1.3-1.6,1.5-3,0.9
		l-2.6-1.3l0.4-0.8l2.5,1.3c0.9,0.5,1.6,0.3,2-0.6c0.3-0.5,0.3-1,0.1-1.6L104.9,86.6z"/>
	<path d="M95.8,103.4l-2.3-2.4l0.7-0.6l2.1,2.3c0.6,0.6,1.1,0.7,1.7,0.2c0.2-0.2,0.4-0.4,0.5-0.7c0.1-0.3,0.1-0.5,0-0.8
		c0,0-0.1-0.1-0.3-0.3L96,98.7l0.7-0.6l2.2,2.4c0.2,0.2,0.5,0.4,0.7,0.4s0.5-0.1,0.8-0.3c0.4-0.4,0.6-0.9,0.5-1.4l-2.5-2.7l0.7-0.6
		l3.5,3.7l-0.7,0.6l-0.4-0.5c0,0.3,0,0.6-0.2,0.9c-0.1,0.3-0.3,0.6-0.6,0.8c-0.3,0.3-0.6,0.4-0.9,0.5c-0.3,0.1-0.6,0-0.8-0.1
		c0,0.3,0,0.7-0.1,1c-0.1,0.3-0.3,0.6-0.6,0.9C97.5,104.4,96.7,104.3,95.8,103.4z"/>
	<path d="M86.6,104.9l0.8-0.4l2,4.7l-0.8,0.4l-0.2-0.6c-0.1,0.3-0.3,0.5-0.5,0.8s-0.5,0.4-0.8,0.5c-1.3,0.5-2.2,0.1-2.8-1.3
		l-1.1-2.7L84,106l1.1,2.6c0.4,1,1,1.3,1.9,0.9c0.5-0.2,0.9-0.6,1.1-1.2L86.6,104.9z"/>
	<path d="M69.1,108.4l0.9,0l0,0.5c0.4-0.4,0.9-0.7,1.6-0.7c0.8,0,1.4,0.2,1.9,0.7c0.5,0.5,0.7,1.1,0.7,1.9c0,0.7-0.2,1.4-0.8,1.9
		c-0.5,0.5-1.2,0.8-2,0.8c-0.8,0-1.5-0.2-2.2-0.5l-0.1-3.8l-0.2,0c-0.5,0-0.8,0.2-1.1,0.6c-0.3,0.4-0.4,1-0.4,1.6
		c0,1,0.4,1.9,1.2,2.6c0.7,0.7,1.7,1,2.9,1c1.2,0,2.2-0.4,3-1.2c0.8-0.8,1.2-1.8,1.2-3c0-1.2-0.4-2.1-1.3-2.9
		c-0.8-0.8-1.8-1.1-3-1.1c-0.4,0-0.8,0.1-1.2,0.2l-0.1-0.8c0.4-0.1,0.8-0.2,1.3-0.2c1.5,0,2.7,0.4,3.7,1.4c1,0.9,1.5,2.1,1.5,3.5
		c0,1.4-0.4,2.6-1.4,3.5c-0.9,1-2.1,1.5-3.6,1.5c-1.4,0-2.6-0.4-3.5-1.2s-1.4-1.9-1.4-3.2c0-0.8,0.2-1.6,0.7-2.2
		C67.7,108.7,68.3,108.4,69.1,108.4z M71.5,109.1c-0.3,0-0.5,0.1-0.8,0.2c-0.3,0.1-0.5,0.3-0.6,0.5l0,2.6c0.4,0.2,0.8,0.3,1.3,0.3
		c0.6,0,1-0.2,1.4-0.6c0.3-0.4,0.5-0.8,0.5-1.3c0-0.5-0.2-1-0.5-1.3S72,109.1,71.5,109.1z"/>
	<path d="M60.6,106.2c-0.1,0.4-0.4,0.6-0.7,0.8c-0.4,0.1-0.8,0.2-1.3,0.1c0,0.1,0,0.3,0,0.4s-0.2,0.3-0.3,0.4
		c0.3,0.3,0.5,0.6,0.6,0.9c0.1,0.3,0.1,0.7-0.1,1.1c-0.2,0.5-0.5,0.8-1,1c-0.5,0.2-1,0.2-1.6,0c-0.5-0.2-0.8-0.4-1.1-0.8l-1.5-0.2
		l0.2-0.7l1,0.1c-0.1-0.3,0-0.6,0.1-0.9c0.2-0.5,0.5-0.8,1-1c0.5-0.2,1-0.2,1.6,0c0.2,0.1,0.3,0.1,0.3,0.1c0.1-0.1,0.1-0.2,0.2-0.2
		c0-0.1,0.1-0.2,0-0.4c0,0-0.1,0-0.1,0c-0.1,0-0.1,0-0.2-0.1c-0.7-0.3-1.3-0.6-1.6-1.1s-0.4-0.9-0.2-1.4c0.2-0.5,0.5-0.8,1.1-0.9
		c0.5-0.1,1.2,0,1.9,0.3c0.8,0.3,1.3,0.6,1.6,1S60.8,105.7,60.6,106.2z M57.9,109.6c0.1-0.3,0.1-0.6,0-0.9s-0.4-0.5-0.7-0.6
		c-0.3-0.1-0.7-0.1-0.9,0c-0.3,0.1-0.5,0.3-0.6,0.6c-0.1,0.3-0.1,0.6,0,0.9c0.1,0.3,0.4,0.5,0.7,0.6c0.3,0.1,0.7,0.1,0.9,0
		C57.6,110.1,57.8,109.9,57.9,109.6z M56.5,104.7c-0.1,0.3,0,0.5,0.2,0.8c0.2,0.3,0.6,0.5,1.1,0.7c0.5,0.2,0.9,0.3,1.3,0.2
		s0.6-0.2,0.7-0.5c0.1-0.3,0-0.5-0.2-0.8c-0.2-0.3-0.6-0.5-1.1-0.7c-0.5-0.2-0.9-0.3-1.3-0.2S56.6,104.5,56.5,104.7z"/>
	<path d="M41.6,99.6l2.2-2.6l0.7,0.6l-2,2.4c-0.5,0.6-0.5,1.2,0,1.7c0.2,0.2,0.5,0.3,0.7,0.4c0.3,0.1,0.5,0,0.8-0.1
		c0,0,0.1-0.1,0.2-0.3l2.1-2.5l0.7,0.6l-2.1,2.5c-0.2,0.2-0.3,0.5-0.3,0.8c0,0.3,0.2,0.5,0.4,0.7c0.4,0.4,0.9,0.5,1.5,0.3l2.4-2.8
		l0.7,0.6l-3.3,3.9l-0.7-0.6l0.4-0.5c-0.3,0-0.6,0-0.9-0.1c-0.3-0.1-0.6-0.2-0.9-0.5c-0.3-0.2-0.5-0.5-0.6-0.8
		c-0.1-0.3-0.1-0.6,0-0.9c-0.3,0.1-0.7,0.1-1,0s-0.7-0.2-0.9-0.5C40.9,101.4,40.8,100.6,41.6,99.6z"/>
	<path d="M35.9,93.2l-0.5,0.6c-0.5-0.3-0.9-0.7-1.3-1.2c-0.3-0.6-0.5-1.1-0.3-1.5s0.5-0.8,1.1-1.2l2.7-1.6L38,89l-0.6,0.3
		c0.6,0.1,1.1,0.4,1.5,1c0.2,0.4,0.3,0.8,0.2,1.2c-0.1,0.4-0.4,0.7-0.8,1c-0.4,0.3-0.9,0.3-1.3,0.1c-0.4-0.2-0.8-0.5-1.1-1
		c-0.3-0.5-0.4-0.9-0.4-1.3c-0.5,0.3-0.8,0.6-0.9,0.8c-0.1,0.3-0.1,0.6,0.1,1C35.1,92.6,35.4,92.9,35.9,93.2z M38.1,90.5
		c-0.3-0.4-0.7-0.7-1.2-0.8L36.3,90c0,0.4,0.1,0.8,0.3,1.2c0.2,0.3,0.4,0.5,0.6,0.6c0.2,0.1,0.5,0.1,0.7,0c0.2-0.1,0.3-0.3,0.4-0.5
		C38.3,90.9,38.2,90.7,38.1,90.5z"/>
	<path d="M28.1,83.3c-0.2,0-0.3,0-0.4-0.1c-0.1-0.1-0.2-0.2-0.3-0.4c0-0.2,0-0.3,0-0.4c0.1-0.1,0.2-0.2,0.3-0.3c0.2,0,0.3,0,0.5,0
		c0.1,0.1,0.2,0.2,0.3,0.3c0,0.2,0,0.3,0,0.4C28.4,83.1,28.3,83.2,28.1,83.3z M34.6,80.4l0.2,0.9l-4.9,1.4l-0.2-0.9L34.6,80.4z"/>
	<path d="M32.1,72.9l-6.6,0.2l0-0.9l6.2-0.2c0.7,0,1-0.2,1-0.6c0-0.2-0.1-0.4-0.2-0.6l0.7-0.2c0.3,0.3,0.4,0.7,0.4,1.2
		C33.5,72.5,33.1,72.9,32.1,72.9z"/>
	<path d="M33.4,64c-0.2,0-0.3-0.1-0.4-0.3s-0.1-0.3-0.1-0.5c0-0.2,0.1-0.3,0.3-0.4c0.1-0.1,0.3-0.1,0.4-0.1c0.2,0,0.3,0.1,0.4,0.3
		c0.1,0.1,0.1,0.3,0.1,0.5c0,0.2-0.1,0.3-0.3,0.4C33.7,64,33.6,64,33.4,64z"/>
	<path d="M36.8,52l0.8-0.1c0.3,0.6,0.3,1.4-0.1,2.1c-0.4,0.7-0.9,1.2-1.5,1.5c-0.7,0.2-1.3,0.2-2.1-0.2c-0.7-0.3-1.1-0.8-1.4-1.5
		s-0.2-1.3,0.1-2c0.4-0.8,0.9-1.3,1.5-1.5l0.5,0.7c-0.5,0.2-0.9,0.6-1.1,1.1c-0.2,0.4-0.2,0.9-0.1,1.3c0.2,0.5,0.5,0.8,0.9,1
		c0.5,0.2,1,0.3,1.4,0.1c0.5-0.2,0.8-0.5,1-1C37,53.1,37,52.6,36.8,52z"/>
	<path d="M41.8,46.2c-0.7,0-1.4-0.2-1.9-0.8c-0.6-0.5-0.9-1.1-0.9-1.9c0-0.7,0.2-1.4,0.8-2c0.6-0.6,1.2-0.9,1.9-0.9
		c0.7,0,1.3,0.2,1.9,0.8c0.6,0.5,0.9,1.2,0.9,1.9c0,0.7-0.2,1.4-0.8,1.9C43.1,45.8,42.5,46.1,41.8,46.2z M40.5,44.7
		c0.4,0.4,0.8,0.5,1.3,0.5c0.5,0,0.9-0.2,1.2-0.6c0.4-0.4,0.5-0.8,0.5-1.3c0-0.5-0.2-0.9-0.6-1.3c-0.4-0.4-0.8-0.5-1.3-0.5
		c-0.5,0-0.9,0.2-1.2,0.6c-0.4,0.4-0.5,0.8-0.5,1.3C40,43.9,40.2,44.3,40.5,44.7z"/>
	<path d="M56.2,32.6l1.5,3L56.8,36l-1.4-2.8c-0.4-0.7-0.9-1-1.5-0.6c-0.3,0.1-0.5,0.3-0.6,0.5c-0.2,0.2-0.2,0.5-0.2,0.7
		c0,0,0.1,0.1,0.2,0.3l1.4,2.9l-0.8,0.4l-1.5-2.9C52.2,34.2,52,34,51.8,34c-0.3-0.1-0.5,0-0.8,0.1c-0.5,0.3-0.8,0.7-0.9,1.2l1.6,3.3
		L50.9,39l-2.3-4.6l0.8-0.4l0.3,0.6c0.1-0.3,0.2-0.5,0.4-0.8c0.2-0.3,0.5-0.5,0.8-0.6c0.3-0.2,0.7-0.2,1-0.2c0.3,0,0.6,0.1,0.8,0.3
		c0-0.3,0.2-0.6,0.4-0.9c0.2-0.3,0.5-0.5,0.8-0.7C54.8,31.2,55.6,31.5,56.2,32.6z"/>
</g>
</svg>
