<?xml version="1.0" encoding="utf-8"?>
<!-- Generator: Adobe Illustrator 22.1.0, SVG Export Plug-In . SVG Version: 6.00 Build 0)  -->
<svg version="1.1" id="Layer_1" xmlns="http://www.w3.org/2000/svg" xmlns:xlink="http://www.w3.org/1999/xlink" x="0px" y="0px"
	 viewBox="0 0 141.7 141.7" style="enable-background:new 0 0 141.7 141.7;" xml:space="preserve">
<style type="text/css">
	.st0{opacity:0.98;}
	.st1{fill:#FFFFFF;}
</style>
<g class="st0">
	<path class="st1" d="M68.4,33.4l-5,0.7l-1.1-7.9l1.8-0.3l0.9,6.2l3.2-0.5L68.4,33.4z"/>
	<path class="st1" d="M76.7,33.2c-0.4-0.6-0.5-1.3-0.4-2c0.2-0.8,0.5-1.3,1.2-1.7c0.6-0.4,1.3-0.5,2.2-0.3c0.8,0.2,1.5,0.6,1.9,1.2
		c0.4,0.6,0.5,1.3,0.4,2c-0.2,0.8-0.5,1.3-1.2,1.7c-0.6,0.4-1.3,0.5-2.2,0.3C77.7,34.2,77.1,33.8,76.7,33.2z M78.1,31.5
		c-0.1,0.3,0,0.6,0.1,0.8c0.1,0.2,0.4,0.4,0.7,0.5c0.3,0.1,0.6,0,0.8-0.1c0.2-0.2,0.4-0.4,0.4-0.7c0.1-0.3,0-0.6-0.1-0.8
		c-0.1-0.2-0.4-0.4-0.7-0.5s-0.5,0-0.8,0.1C78.4,30.9,78.2,31.2,78.1,31.5z"/>
	<path class="st1" d="M91,35.2l0.3-1.3c0.6,0,1.3,0.2,1.9,0.6c0.6,0.4,1,0.8,1.1,1.3c0.1,0.5,0,1-0.4,1.7L92.3,40L91,39.3l0.2-0.4
		c-0.4,0.2-0.9,0.1-1.4-0.2c-0.4-0.3-0.7-0.6-0.8-1s0-0.8,0.2-1.2c0.3-0.5,0.6-0.7,1.1-0.8c0.4-0.1,0.9,0,1.4,0.3
		c0.4,0.2,0.6,0.5,0.7,0.8c0.3-0.5,0.3-0.8-0.1-1.1C92,35.4,91.6,35.3,91,35.2z M91.1,37.7c0.3,0.2,0.5,0.2,0.7,0.1l0.2-0.3
		c-0.1-0.2-0.2-0.3-0.5-0.5C91.3,37,91.2,37,91.1,37c-0.1,0-0.2,0.1-0.3,0.2c-0.1,0.1-0.1,0.2,0,0.3C90.8,37.5,90.9,37.6,91.1,37.7z
		"/>
	<path class="st1" d="M101.6,49.3l-1.1-1.3l0.3-0.3c-0.5-0.1-0.9-0.3-1.2-0.7c-0.5-0.6-0.6-1.2-0.5-1.8c0.1-0.6,0.4-1.2,1.1-1.7
		c0.6-0.5,1.3-0.7,2-0.6c0.7,0.1,1.4,0.5,1.9,1.1c0.2,0.3,0.3,0.5,0.4,0.8l2.2-1.8l1.1,1.3L101.6,49.3z M101.1,46.3
		c0.2,0.3,0.5,0.4,0.9,0.5l1.2-1c0-0.3-0.1-0.5-0.3-0.7c-0.2-0.2-0.4-0.4-0.7-0.4s-0.6,0.1-0.8,0.3c-0.2,0.2-0.4,0.4-0.4,0.7
		C100.9,45.9,100.9,46.1,101.1,46.3z"/>
	<path class="st1" d="M106.2,58.3l-0.6-1.6l4.8-1.8l0.6,1.6L106.2,58.3z M111.9,54.1c0.3-0.1,0.5-0.1,0.8,0s0.4,0.3,0.5,0.6
		c0.1,0.2,0.1,0.5,0,0.7c-0.1,0.2-0.3,0.4-0.5,0.5c-0.3,0.1-0.6,0.1-0.8,0c-0.2-0.1-0.4-0.3-0.5-0.5c-0.1-0.3-0.1-0.5,0-0.8
		C111.4,54.4,111.6,54.2,111.9,54.1z"/>
	<path class="st1" d="M108.2,68.2l-0.1-1.7l5.1-0.3l0.1,1.7l-0.4,0c0.3,0.3,0.5,0.7,0.6,1.2c0.1,1.4-0.6,2.1-2,2.2l-3,0.2l-0.1-1.7
		l2.7-0.1c0.3,0,0.5-0.1,0.6-0.3c0.1-0.2,0.2-0.4,0.2-0.6c0-0.3-0.1-0.6-0.4-0.8L108.2,68.2z"/>
	<path class="st1" d="M106.9,78.8c0.4,0.1,0.7,0.4,0.9,0.7c0.2,0.4,0.2,0.8,0.2,1.4c0.1,0,0.2,0,0.3,0c0.1,0,0.2,0.1,0.3,0.2
		c0.3-0.3,0.6-0.6,0.9-0.7c0.4-0.1,0.7-0.1,1.1,0c0.5,0.2,0.9,0.5,1.1,1c0.2,0.5,0.3,1.1,0.1,1.7c-0.1,0.5-0.4,0.9-0.7,1.2l-0.2,1.6
		l-1.3-0.3l0.1-0.8c-0.2,0-0.3,0-0.4-0.1c-0.5-0.1-0.8-0.5-1.1-0.9c-0.2-0.5-0.3-1-0.1-1.6c0,0-0.1,0-0.1,0c-0.1,0-0.1,0-0.2,0
		c-0.2,0.7-0.6,1.2-1,1.6s-0.9,0.5-1.4,0.3c-0.5-0.2-0.9-0.5-1-1.1c-0.1-0.6-0.1-1.2,0.1-2c0.2-0.8,0.6-1.4,1-1.8
		C105.9,78.7,106.4,78.6,106.9,78.8z M106.5,80.3c-0.2-0.1-0.4,0.3-0.6,1s-0.2,1.1,0,1.2c0.2,0.1,0.4-0.3,0.7-1
		C106.7,80.7,106.7,80.3,106.5,80.3z M109.4,82.3c-0.1,0.2-0.1,0.4,0,0.5c0.1,0.1,0.2,0.2,0.3,0.3c0.2,0.1,0.3,0,0.5,0
		c0.1-0.1,0.2-0.2,0.3-0.4c0.1-0.3,0-0.5-0.1-0.6c-0.2-0.2-0.4-0.2-0.6-0.2C109.6,81.9,109.5,82,109.4,82.3z"/>
	<path class="st1" d="M103.3,91.7c0.2,0.2,0.4,0.4,0.4,0.7s0,0.6-0.2,0.9c-0.2,0.2-0.4,0.4-0.7,0.4c-0.3,0-0.6,0-0.8-0.2
		c-0.3-0.2-0.4-0.4-0.5-0.7c-0.1-0.3,0-0.6,0.2-0.8c0.2-0.3,0.4-0.4,0.7-0.5C102.8,91.4,103.1,91.5,103.3,91.7z"/>
	<path class="st1" d="M93.7,100.4c1-0.8,2.1-1,3.1-0.6l0,1.6c-0.8-0.2-1.5-0.1-2,0.3c-0.3,0.2-0.4,0.4-0.5,0.6
		c-0.1,0.2,0,0.5,0.1,0.7c0.2,0.2,0.4,0.3,0.6,0.3c0.3,0,0.5-0.1,0.9-0.4l0.6-0.4l1,1.4l-0.5,0.4c-0.2,0.2-0.4,0.4-0.4,0.6
		c-0.1,0.2,0,0.4,0.1,0.6c0.1,0.2,0.3,0.3,0.5,0.3c0.2,0,0.4-0.1,0.6-0.2c0.4-0.3,0.6-0.8,0.6-1.5l1.6,0.3c0,0.5-0.1,1-0.3,1.4
		s-0.6,0.9-1,1.2c-0.6,0.5-1.2,0.7-1.8,0.6c-0.6,0-1.1-0.3-1.5-0.9c-0.4-0.5-0.5-1.2-0.2-1.9l0,0c-0.9,0.3-1.6,0.1-2.2-0.7
		c-0.4-0.6-0.5-1.2-0.4-1.9C92.7,101.5,93.1,100.9,93.7,100.4z"/>
	<path class="st1" d="M84.6,109.5l0.8,1.1c-0.4,0.5-1,0.8-1.7,1c-0.7,0.2-1.3,0.2-1.7,0s-0.8-0.7-1-1.4l-0.9-2.9l1.4-0.4l0.1,0.4
		c0.1-0.4,0.5-0.7,1.1-0.9c0.5-0.1,0.9-0.1,1.2,0.1c0.4,0.2,0.6,0.5,0.8,1c0.2,0.5,0.1,1-0.1,1.3c-0.2,0.4-0.6,0.7-1.1,0.8
		c-0.4,0.1-0.8,0.1-1,0c0.1,0.6,0.5,0.8,0.9,0.6C83.8,110.1,84.2,109.9,84.6,109.5z M82.7,107.8c-0.3,0.1-0.5,0.2-0.5,0.4l0.1,0.3
		c0.2,0.1,0.4,0,0.7,0c0.1,0,0.2-0.1,0.3-0.2c0.1-0.1,0.1-0.2,0-0.3c0-0.1-0.1-0.2-0.2-0.2C82.9,107.8,82.8,107.8,82.7,107.8z"/>
	<path class="st1" d="M70.4,108.3l1.7,0l-0.1,5.1l-3.6-0.1l0-1.6l1.9,0L70.4,108.3z"/>
	<path class="st1" d="M59.9,104.4l1.6,0.6l-2.5,6.9l-1.6-0.6l0.1-0.4c-0.4,0.2-0.9,0.2-1.5,0c-0.6-0.2-1.1-0.6-1.3-1.2
		c-0.2-0.6-0.2-1.3,0-2c0.3-0.7,0.7-1.3,1.4-1.6c0.7-0.3,1.4-0.3,2.1-0.1c0.4,0.1,0.6,0.3,0.8,0.5L59.9,104.4z M57.1,109.6
		c0.3,0.1,0.6,0.1,1-0.1l0.5-1.5c-0.2-0.2-0.4-0.3-0.7-0.4c-0.3-0.1-0.6-0.1-0.9,0c-0.2,0.1-0.4,0.4-0.5,0.7c-0.1,0.3-0.1,0.6,0,0.8
		C56.7,109.4,56.9,109.5,57.1,109.6z"/>
	<path class="st1" d="M43.2,103.3l-1.5-1.2l4.8-2.7c0.8-0.5,1.5-0.7,1.9-0.8c0.4-0.1,0.8,0,1.1,0.3c0.3,0.3,0.5,0.7,0.6,1.1
		l-1.2,0.6c-0.1-0.2-0.1-0.4-0.3-0.4c-0.2-0.1-0.4-0.1-0.6,0l-0.3,0.1l-1.5,5.4l-1.6-1.3l0.8-2.4c0.1-0.2,0.2-0.4,0.3-0.7
		c-0.2,0.2-0.4,0.4-0.5,0.5L43.2,103.3z"/>
	<path class="st1" d="M39.1,90.5c0.2,0.4,0.4,0.8,0.5,1.3c0.1,0.5,0.1,0.9-0.1,1.1l-1.3-0.2c0.1-0.2,0.1-0.4,0-0.7
		c0-0.3-0.1-0.5-0.2-0.7c-0.3-0.4-0.5-0.6-0.7-0.4c-0.2,0.1-0.2,0.4,0,0.7l0.5,0.8l-1,0.6l-0.5-0.8c-0.1-0.1-0.2-0.2-0.3-0.3
		s-0.2,0-0.3,0c-0.2,0.1-0.2,0.4,0,0.8c0.2,0.3,0.6,0.6,1.2,0.8l-0.5,1.1c-0.8-0.1-1.5-0.6-2-1.5c-0.4-0.6-0.5-1.1-0.5-1.6
		c0-0.5,0.2-0.8,0.7-1.1c0.2-0.1,0.4-0.2,0.7-0.1c0.3,0,0.5,0.2,0.7,0.3l0,0c-0.2-0.7-0.1-1.2,0.5-1.5c0.4-0.2,0.8-0.3,1.3,0
		C38.3,89.5,38.7,89.9,39.1,90.5z"/>
	<path class="st1" d="M34.4,79.4l0.4,1.7l-5,1.1l-0.4-1.7l2.3-0.5l-2.6-0.9L28.6,77l2.7,1.1l2.2-2.4l0.5,2.2l-2,2L34.4,79.4z"/>
	<path class="st1" d="M30,67.1l-1.3,0.3c-0.3-0.6-0.3-1.2-0.3-1.9c0.1-0.7,0.3-1.2,0.7-1.5c0.4-0.3,1-0.4,1.7-0.3l3,0.4l-0.2,1.5
		l-0.5-0.1c0.3,0.3,0.4,0.8,0.4,1.4c-0.1,0.5-0.3,0.8-0.6,1.1c-0.3,0.3-0.7,0.4-1.2,0.3c-0.5-0.1-0.9-0.3-1.2-0.7
		c-0.3-0.4-0.3-0.8-0.3-1.4c0.1-0.4,0.2-0.7,0.4-1c-0.6-0.1-0.9,0.1-1,0.6C29.8,66.2,29.9,66.6,30,67.1z M32.3,66.1
		c0-0.3,0-0.5-0.2-0.7l-0.3,0c-0.1,0.1-0.2,0.3-0.2,0.6c0,0.1,0,0.3,0.1,0.4c0.1,0.1,0.1,0.2,0.3,0.2c0.1,0,0.2,0,0.3-0.1
		C32.3,66.3,32.3,66.2,32.3,66.1z"/>
	<path class="st1" d="M37.6,46.4c-0.3,0-0.7,0.1-1.1,0.2c-1.3,2.5-2.7,5.2-3.6,6.8c0.1,0.1,0.1,0.2,0,0.2l-0.9-0.2
		c0.2-0.4,0.5-1,0.9-1.5c-0.4-0.7-1-1.6-1.5-2.3l-1.7,2.9L29,52l2.3-4l-1.2-0.7l0.6-0.8c0.1,0,0.1,0.1,0,0.3l1,0.6l2.4-4l0.6,0.4
		l-2.9,4.9l0,0c0,0.1,0,0.2,0,0.3c0.4,0.6,1,1.5,1.4,2.2c0.7-1.3,1.6-2.8,2.4-4.3c-0.7,0.2-1.5,0.5-2.2,0.7l0-0.7
		c1.3-0.6,3.1-1.1,4.2-1.2L37.6,46.4z M34.7,50.7c0.1,0,0.1,0.1,0,0.3c1.9,1.4,3,2.6,2.2,5.6c-0.2,0-0.6,0-0.8,0.1
		c0.8-2.7-0.2-3.8-2.1-5.1L34.7,50.7z M39.3,50.2c0.3,0.2,0.4,0.1,0.6-0.3l0.8-1.3c0.2-0.4,0-0.6-1.4-1.5c0.2-0.1,0.5-0.3,0.6-0.4
		c1.6,1.1,1.9,1.5,1.5,2.3l-0.9,1.5c-0.5,0.8-0.8,0.9-1.6,0.5l-3.3-1.9l0.5-0.8c0.1,0.1,0.1,0.1,0,0.3L39.3,50.2z"/>
	<path class="st1" d="M48,37.4l0.5,0.5c-0.7,1.1-1.5,2.2-2.1,2.9c0,0.1,0,0.2,0,0.2l-0.8-0.5c0.3-0.4,0.6-0.8,1-1.3l-2-3.2l-1.2,0.7
		l-0.4-0.6l1.2-0.7L42.8,33l0.8-0.4c0,0.1,0,0.1-0.1,0.2l1.3,2.1l1.1-0.7l0.4,0.6l-1.1,0.7l1.9,3L48,37.4z M48.4,32.4l-0.5-0.7
		l-2.6,1.6L45,32.8l2.6-1.6L47,30.3l0.9-0.5c0,0.1,0,0.2-0.1,0.2l0.5,0.7l2.6-1.7l0.3,0.5l-2.6,1.7L49,32l1.9-1.2l2.4,3.8L49,37.4
		l-2.4-3.8L48.4,32.4z M51,32.4l-0.4-0.7l-3.1,2l0.4,0.7L51,32.4z M51.7,33.5l-0.4-0.7l-3.1,2l0.4,0.7L51.7,33.5z M48.6,39.2
		l-0.4-0.6l6.2-3.9l0.4,0.6L48.6,39.2z M52.4,34.6L52,33.9l-3.1,2l0.4,0.7L52.4,34.6z M51.6,38c0,0.1-0.1,0.1-0.2,0.2
		c-0.3,0.8-0.9,1.9-1.5,2.7c-0.2-0.1-0.5-0.1-0.7-0.2c0.6-0.8,1.2-1.8,1.4-2.6L51.6,38z M55.5,37.4c-0.7-0.1-1.8-0.1-2.8-0.1
		l0.2-0.6c1-0.1,2.2-0.1,3,0L55.5,37.4z"/>
</g>
</svg>
