<?xml version="1.0" encoding="utf-8"?>
<!-- Generator: Adobe Illustrator 22.1.0, SVG Export Plug-In . SVG Version: 6.00 Build 0)  -->
<svg version="1.1" id="Layer_1" xmlns="http://www.w3.org/2000/svg" xmlns:xlink="http://www.w3.org/1999/xlink" x="0px" y="0px"
	 viewBox="0 0 208 120" style="enable-background:new 0 0 208 120;" xml:space="preserve">
<style type="text/css">
	.st0{fill:#FFFFFF;}
</style>
<polygon class="st0" points="8,60 0.3,60 0.3,26.4 8,26.4 18.4,40.6 28.2,26.4 35.4,26.4 35.4,60 27.7,60 27.7,38.6 18.4,51.7 
	17.3,51.7 8,38.7 "/>
<rect x="48.8" y="38.4" class="st0" width="7.2" height="21.6"/>
<path class="st0" d="M48.2,26.9c0-1.2,0.4-2.2,1.2-2.9c0.8-0.8,1.9-1.2,3.1-1.2c1.1,0,2.1,0.4,2.9,1.2s1.2,1.7,1.2,2.9
	c0,1.3-0.4,2.4-1.2,3.2s-1.8,1.2-2.9,1.2c-1.3,0-2.3-0.4-3.2-1.2C48.6,29.3,48.2,28.2,48.2,26.9z"/>
<path class="st0" d="M74.8,60h-7.2V38.4h7.2v1.7c1-1.4,2.4-2.1,4.5-2.1c1.5,0,2.6,0.3,3.4,0.8l-2.5,6.7c-0.9-0.5-1.8-0.8-2.6-0.8
	c-1.2,0-2.1,0.5-2.6,1.5V60z"/>
<path class="st0" d="M98.3,60h-7.2V38.4h7.2v1.7c1-1.4,2.4-2.1,4.5-2.1c1.5,0,2.6,0.3,3.4,0.8l-2.5,6.7c-0.9-0.5-1.8-0.8-2.6-0.8
	c-1.2,0-2.1,0.5-2.6,1.5V60z"/>
<path class="st0" d="M116.6,56.8c-2.2-2.2-3.3-4.9-3.3-8.2s1.1-6,3.3-8.2c2.2-2.1,5.1-3.2,8.7-3.2c3.6,0,6.5,1.1,8.7,3.2
	c2.2,2.1,3.3,4.9,3.3,8.2c0,3.3-1.1,6-3.3,8.2c-2.1,2.1-5,3.2-8.7,3.2C121.7,60,118.7,58.9,116.6,56.8z M121,48.6
	c0,1.3,0.4,2.5,1.2,3.4c0.8,0.9,1.9,1.3,3.1,1.3c1.3,0,2.3-0.4,3.1-1.2c0.8-0.9,1.2-2,1.2-3.4c0-1.3-0.4-2.4-1.2-3.3
	c-0.8-0.9-1.8-1.3-3.1-1.3s-2.3,0.4-3.1,1.3C121.4,46.1,121,47.2,121,48.6z"/>
<path class="st0" d="M154.3,60h-7.2V38.4h7.2v1.7c1-1.4,2.4-2.1,4.5-2.1c1.5,0,2.6,0.3,3.4,0.8l-2.5,6.7c-0.9-0.5-1.8-0.8-2.6-0.8
	c-1.2,0-2.1,0.5-2.6,1.5V60z"/>
<polygon class="st0" points="192.8,37.4 186,37.4 186,22.3 192.1,22.3 197.2,26 201.9,22.3 207.7,22.3 207.7,37.4 200.9,37.4 
	200.9,30.8 197,33.7 196.9,33.7 192.8,30.8 "/>
<polygon class="st0" points="173.4,28.8 168.9,28.8 168.9,22.3 184.6,22.3 184.6,28.8 180.1,28.8 180.1,37.4 173.4,37.4 "/>
</svg>
